<svg id="visual" viewBox="0 0 1920 540" width="1920" height="540" xmlns="http://www.w3.org/2000/svg" xmlns:xlink="http://www.w3.org/1999/xlink" version="1.1"><rect x="0" y="0" width="1920" height="540" fill="#0a1016"></rect><path d="M0 327L160 327L160 318L320 318L320 331L480 331L480 234L640 234L640 292L800 292L800 364L960 364L960 284L1120 284L1120 216L1280 216L1280 262L1440 262L1440 328L1600 328L1600 236L1760 236L1760 281L1920 281L1920 332L1920 541L1920 541L1760 541L1760 541L1600 541L1600 541L1440 541L1440 541L1280 541L1280 541L1120 541L1120 541L960 541L960 541L800 541L800 541L640 541L640 541L480 541L480 541L320 541L320 541L160 541L160 541L0 541Z" fill="#101922"></path><path d="M0 389L160 389L160 387L320 387L320 308L480 308L480 335L640 335L640 381L800 381L800 366L960 366L960 389L1120 389L1120 364L1280 364L1280 380L1440 380L1440 320L1600 320L1600 410L1760 410L1760 402L1920 402L1920 311L1920 541L1920 541L1760 541L1760 541L1600 541L1600 541L1440 541L1440 541L1280 541L1280 541L1120 541L1120 541L960 541L960 541L800 541L800 541L640 541L640 541L480 541L480 541L320 541L320 541L160 541L160 541L0 541Z" fill="#111b25"></path><path d="M0 376L160 376L160 438L320 438L320 375L480 375L480 395L640 395L640 448L800 448L800 351L960 351L960 386L1120 386L1120 340L1280 340L1280 424L1440 424L1440 390L1600 390L1600 430L1760 430L1760 340L1920 340L1920 380L1920 541L1920 541L1760 541L1760 541L1600 541L1600 541L1440 541L1440 541L1280 541L1280 541L1120 541L1120 541L960 541L960 541L800 541L800 541L640 541L640 541L480 541L480 541L320 541L320 541L160 541L160 541L0 541Z" fill="#121d29"></path><path d="M0 417L160 417L160 470L320 470L320 492L480 492L480 423L640 423L640 435L800 435L800 427L960 427L960 458L1120 458L1120 470L1280 470L1280 444L1440 444L1440 457L1600 457L1600 422L1760 422L1760 493L1920 493L1920 410L1920 541L1920 541L1760 541L1760 541L1600 541L1600 541L1440 541L1440 541L1280 541L1280 541L1120 541L1120 541L960 541L960 541L800 541L800 541L640 541L640 541L480 541L480 541L320 541L320 541L160 541L160 541L0 541Z" fill="#131f2c"></path></svg>