<svg id="visual" viewBox="0 0 1920 540" width="1920" height="540" xmlns="http://www.w3.org/2000/svg" xmlns:xlink="http://www.w3.org/1999/xlink" version="1.1"><rect x="0" y="0" width="1920" height="540" fill="#0a1016"></rect><path d="M0 234L160 234L160 196L320 196L320 254L480 254L480 311L640 311L640 241L800 241L800 345L960 345L960 279L1120 279L1120 223L1280 223L1280 258L1440 258L1440 268L1600 268L1600 337L1760 337L1760 297L1920 297L1920 201L1920 541L1920 541L1760 541L1760 541L1600 541L1600 541L1440 541L1440 541L1280 541L1280 541L1120 541L1120 541L960 541L960 541L800 541L800 541L640 541L640 541L480 541L480 541L320 541L320 541L160 541L160 541L0 541Z" fill="#101922"></path><path d="M0 336L160 336L160 340L320 340L320 317L480 317L480 290L640 290L640 396L800 396L800 393L960 393L960 389L1120 389L1120 268L1280 268L1280 300L1440 300L1440 366L1600 366L1600 404L1760 404L1760 334L1920 334L1920 315L1920 541L1920 541L1760 541L1760 541L1600 541L1600 541L1440 541L1440 541L1280 541L1280 541L1120 541L1120 541L960 541L960 541L800 541L800 541L640 541L640 541L480 541L480 541L320 541L320 541L160 541L160 541L0 541Z" fill="#111b25"></path><path d="M0 419L160 419L160 352L320 352L320 429L480 429L480 441L640 441L640 359L800 359L800 430L960 430L960 348L1120 348L1120 444L1280 444L1280 440L1440 440L1440 402L1600 402L1600 339L1760 339L1760 350L1920 350L1920 380L1920 541L1920 541L1760 541L1760 541L1600 541L1600 541L1440 541L1440 541L1280 541L1280 541L1120 541L1120 541L960 541L960 541L800 541L800 541L640 541L640 541L480 541L480 541L320 541L320 541L160 541L160 541L0 541Z" fill="#121d29"></path><path d="M0 415L160 415L160 464L320 464L320 483L480 483L480 486L640 486L640 476L800 476L800 479L960 479L960 453L1120 453L1120 439L1280 439L1280 427L1440 427L1440 425L1600 425L1600 473L1760 473L1760 446L1920 446L1920 459L1920 541L1920 541L1760 541L1760 541L1600 541L1600 541L1440 541L1440 541L1280 541L1280 541L1120 541L1120 541L960 541L960 541L800 541L800 541L640 541L640 541L480 541L480 541L320 541L320 541L160 541L160 541L0 541Z" fill="#131f2c"></path></svg>